#!OML:ASF F:\VICON\USERDATA\INSTALL\rory3\rory3.ASF
:FULLY-SPECIFIED
:DEGREES
1202
root 0.829861 15.6821 3.0119 4.7798 -46.1239 13.0621
lowerback -0.24826 5.14586 5.80085
upperback 5.69372 6.7051 -1.47026
thorax 6.96744 3.66552 -4.30289
lowerneck 0.988772 -9.46968 -12.4003
upperneck 46.7337 -18.6938 8.97566
head 20.9652 -9.03459 3.70839
rclavicle 1.74931e-014 2.8625e-014
rhumerus -20.6176 25.1376 -96.5028
rradius 20.5383
rwrist 18.1617
rhand -26.7743 -53.5584
rfingers 7.12502
rthumb -0.202075 -83.538
lclavicle 1.74931e-014 2.8625e-014
lhumerus -53.8108 -84.3067 129.753
lradius 85.1831
lwrist 23.2728
lhand 2.18878 -19.2669
lfingers 7.12502
lthumb 27.6851 8.7154
rfemur -33.3735 2.0351 -5.17991
rtibia 76.4168
rfoot -1.99602 -8.82121
rtoes -31.5958
lfemur -49.4873 -18.9587 -29.5904
ltibia 58.3732
lfoot -21.4589 1.05611
ltoes 19.4864
1203
root 0.832869 15.6726 3.00828 4.86619 -46.0584 12.9543
lowerback -0.245002 5.21701 5.92829
upperback 5.68913 6.79882 -1.51161
thorax 6.99598 3.72121 -4.40773
lowerneck 1.0175 -9.47926 -12.3136
upperneck 46.6979 -18.7372 9.05083
head 20.9387 -9.02964 3.72506
rclavicle 3.33958e-014 3.65764e-014
rhumerus -20.5504 24.5749 -96.3935
rradius 20.5207
rwrist 18.378
rhand -26.5185 -53.5439
rfingers 7.12502
rthumb 0.0449712 -83.5237
lclavicle 3.33958e-014 3.65764e-014
lhumerus -55.7092 -84.6013 131.646
lradius 85.1486
lwrist 23.0263
lhand 2.26397 -19.3726
lfingers 7.12502
lthumb 27.757 8.59816
rfemur -33.1815 2.16139 -5.23795
rtibia 76.4524
rfoot -3.15995 -8.58681
rtoes -26.8109
lfemur -49.5679 -18.9764 -29.5371
ltibia 58.4693
lfoot -21.4649 1.33043
ltoes 18.1998
1204
root 0.839351 15.6765 3.00575 5.03631 -45.9496 12.7006
lowerback -0.187721 5.22999 6.08509
upperback 5.73976 6.81131 -1.50064
thorax 7.03953 3.73781 -4.48353
lowerneck 0.835512 -9.52967 -12.1717
upperneck 46.7111 -18.8188 9.04951
head 21.0004 -9.02616 3.6716
rclavicle 8.74653e-015 2.06736e-014
rhumerus -20.371 24.3648 -96.3216
rradius 20.5594
rwrist 18.3202
rhand -26.2701 -53.5816
rfingers 7.12502
rthumb 0.284882 -83.5611
lclavicle 8.74653e-015 2.06736e-014
lhumerus -55.3106 -84.928 131.203
lradius 85.2214
lwrist 23.0185
lhand 2.72308 -19.5251
lfingers 7.12502
lthumb 28.1959 8.37409
rfemur -33.3983 1.93901 -4.87578
rtibia 76.5332
rfoot -2.00851 -8.89209
rtoes -31.9432
lfemur -49.6011 -19.0814 -29.2623
ltibia 58.4758
lfoot -21.39 1.29567
ltoes 17.375
1205
root 0.849537 15.6618 2.98829 5.24464 -45.8654 12.4487
lowerback -0.00259432 5.12129 6.06628
upperback 5.72147 6.66984 -1.39517
thorax 6.87698 3.65857 -4.39438
lowerneck 0.64126 -9.50399 -12.1986
upperneck 46.7844 -18.7359 8.95175
head 21.0846 -8.99886 3.63153
rclavicle -9.54166e-015 2.38542e-014
rhumerus -20.4027 24.7056 -96.3403
rradius 20.7263
rwrist 18.0848
rhand -26.4853 -53.2905
rfingers 7.12502
rthumb 0.077052 -83.2702
lclavicle -9.54166e-015 2.38542e-014
lhumerus -53.1607 -84.8591 129.036
lradius 85.2614
lwrist 23.0022
lhand 2.57567 -19.7906
lfingers 7.12502
lthumb 28.055 8.13178
rfemur -33.376 2.07082 -4.76594
rtibia 76.6464
rfoot -3.09046 -8.75976
rtoes -28.5761
lfemur -49.8672 -19.0718 -28.9503
ltibia 58.5849
lfoot -21.2757 1.0271
ltoes 17.6464
1206
root 0.856141 15.6669 2.98799 5.23202 -45.8986 12.5408
lowerback 0.0713976 5.03661 5.88
upperback 5.62476 6.56707 -1.35763
thorax 6.68646 3.58987 -4.27436
lowerneck 0.584866 -9.45991 -12.1959
upperneck 46.9031 -18.5846 8.70652
head 21.1 -8.96009 3.53301
rclavicle 7.95139e-016 -3.18055e-015
rhumerus -20.7068 25.0904 -96.4513
rradius 20.9284
rwrist 17.9013
rhand -26.6302 -53.0652
rfingers 7.12502
rthumb -0.0628747 -83.0449
lclavicle 7.95139e-016 -3.18055e-015
lhumerus -53.0685 -84.5098 128.94
lradius 85.2213
lwrist 23.0336
lhand 2.45043 -20.1032
lfingers 7.12502
lthumb 27.9353 7.83864
rfemur -33.8673 1.75665 -4.62976
rtibia 76.7479
rfoot -1.2529 -8.94995
rtoes -34.6769
lfemur -49.898 -18.9806 -29.0443
ltibia 58.5308
lfoot -21.2271 1.23191
ltoes 16.6396
1207
root 0.858276 15.6612 2.99365 5.07162 -45.9883 12.7213
lowerback 0.000389332 5.05353 5.81097
upperback 5.63344 6.59125 -1.40967
thorax 6.73754 3.60138 -4.28182
lowerneck 0.563481 -9.48834 -12.0391
upperneck 46.9052 -18.5649 8.52328
head 21.0228 -8.93876 3.41131
rclavicle -3.89618e-014 2.70347e-014
rhumerus -20.8607 25.1894 -96.5079
rradius 21.0557
rwrist 17.7366
rhand -26.7019 -53.0309
rfingers 7.12502
rthumb -0.132147 -83.0106
lclavicle -3.89618e-014 2.70347e-014
lhumerus -53.0662 -84.4294 128.89
lradius 85.2579
lwrist 23.2867
lhand 3.07309 -20.1153
lfingers 7.12502
lthumb 28.5304 7.7282
rfemur -33.5598 1.98637 -5.04858
rtibia 76.7274
rfoot -2.87135 -8.54963
rtoes -29.7383
lfemur -49.8605 -18.9543 -29.2265
ltibia 58.5641
lfoot -21.2846 1.44268
ltoes 15.8098
1208
root 0.861778 15.6756 3.0023 4.89783 -46.0375 12.8179
lowerback -0.0427909 5.06415 5.77146
upperback 5.73192 6.60263 -1.4246
thorax 6.86697 3.61015 -4.26552
lowerneck 1.08009 -9.46192 -11.9415
upperneck 46.5234 -18.6555 8.80264
head 20.6059 -8.93014 3.43455
rclavicle -3.89618e-014 2.54444e-014
rhumerus -20.8428 25.4192 -96.4871
rradius 21.1682
rwrist 17.5148
rhand -26.9743 -53.0215
rfingers 7.12502
rthumb -0.39523 -83.0008
lclavicle -3.89618e-014 2.54444e-014
lhumerus -51.6213 -84.3849 127.484
lradius 85.2884
lwrist 23.5323
lhand 3.81429 -19.7965
lfingers 7.12502
lthumb 29.2384 7.92603
rfemur -33.6972 1.785 -4.97313
rtibia 76.7035
rfoot -1.48354 -8.78147
rtoes -34.0933
lfemur -49.6523 -19.0187 -29.339
ltibia 58.4782
lfoot -21.3456 1.38708
ltoes 16.2629
1209
root 0.865402 15.6628 2.99838 4.75753 -46.0771 12.9035
lowerback -0.033674 5.05806 5.70049
upperback 5.7955 6.59565 -1.42812
thorax 6.92058 3.60528 -4.22842
lowerneck 0.583082 -9.49381 -12.2154
upperneck 46.7189 -18.6678 8.86217
head 21.0094 -8.98266 3.59274
rclavicle -1.98785e-014 2.54444e-014
rhumerus -20.7562 25.6049 -96.4543
rradius 21.1716
rwrist 17.5002
rhand -27.2961 -52.8829
rfingers 7.12502
rthumb -0.706064 -82.8615
lclavicle -1.98785e-014 2.54444e-014
lhumerus -51.1168 -84.2911 127.061
lradius 85.2748
lwrist 23.7199
lhand 3.51475 -19.6928
lfingers 7.12502
lthumb 28.9523 8.0791
rfemur -33.2916 2.165 -5.30146
rtibia 76.656
rfoot -3.35052 -8.43446
rtoes -27.2975
lfemur -49.6156 -18.9966 -29.4763
ltibia 58.5258
lfoot -21.353 1.50426
ltoes 16.6914
1210
root 0.869995 15.6684 2.99706 4.76522 -46.1843 12.864
lowerback -0.0327961 5.06567 5.71274
upperback 5.82495 6.60378 -1.41766
thorax 6.95323 3.61074 -4.22197
lowerneck 0.50174 -9.48719 -12.2292
upperneck 46.7962 -18.6081 8.73886
head 21.0572 -8.96835 3.54014
rclavicle 3.97569e-015 3.81667e-014
rhumerus -20.6354 25.7478 -96.4368
rradius 21.1358
rwrist 17.5771
rhand -27.2517 -52.9885
rfingers 7.12502
rthumb -0.66323 -82.9672
lclavicle 3.97569e-015 3.81667e-014
lhumerus -50.5816 -84.2072 126.558
lradius 85.1745
lwrist 23.6136
lhand 3.07854 -20.2954
lfingers 7.12502
lthumb 28.5356 7.54726
rfemur -33.5403 2.15343 -5.17224
rtibia 76.6684
rfoot -2.35582 -8.65602
rtoes -30.7967
lfemur -49.5772 -18.87 -29.5453
ltibia 58.4969
lfoot -21.3699 1.77033
ltoes 17.0996
1211
root 0.874146 15.6712 2.99791 4.79516 -46.3736 12.8633
lowerback -0.0958395 5.07942 5.65707
upperback 5.82986 6.61893 -1.38915
thorax 6.98561 3.61453 -4.15417
lowerneck 0.42403 -9.44884 -12.29
upperneck 46.8676 -18.4779 8.59078
head 21.0846 -8.93756 3.49709
rclavicle -6.2816e-014 2.38542e-014
rhumerus -20.6047 26.0681 -96.445
rradius 21.1818
rwrist 17.504
rhand -26.9428 -53.521
rfingers 7.12502
rthumb -0.364891 -83.5004
lclavicle -6.2816e-014 2.38542e-014
lhumerus -49.1104 -83.9823 125.139
lradius 85.0155
lwrist 23.2636
lhand 3.57278 -20.9966
lfingers 7.12502
lthumb 29.0077 6.76587
rfemur -33.7347 2.26169 -5.17234
rtibia 76.651
rfoot -2.02847 -8.70548
rtoes -31.9062
lfemur -49.6461 -18.679 -29.594
ltibia 58.5533
lfoot -21.4097 1.76469
ltoes 17.863
1212
root 0.878563 15.6772 3.00527 4.86436 -46.4739 12.8454
lowerback -0.25181 5.07785 5.68984
upperback 5.82406 6.60811 -1.38775
thorax 7.07208 3.61239 -4.15744
lowerneck 0.469573 -9.37773 -12.4029
upperneck 46.8647 -18.3661 8.62344
head 21.0708 -8.91525 3.55996
rclavicle -1.43125e-014 -6.36111e-014
rhumerus -20.5823 26.2881 -96.5074
rradius 21.0778
rwrist 17.3181
rhand -27.0353 -53.8409
rfingers 7.12502
rthumb -0.454173 -83.8201
lclavicle -1.43125e-014 -6.36111e-014
lhumerus -48.7864 -83.8263 124.829
lradius 84.9794
lwrist 23.0317
lhand 3.46431 -20.935
lfingers 7.12502
lthumb 28.9041 6.8452
rfemur -33.9282 2.21966 -5.1038
rtibia 76.6228
rfoot -1.26802 -8.73886
rtoes -34.5903
lfemur -49.6878 -18.6512 -29.5817
ltibia 58.5496
lfoot -21.4188 1.66862
ltoes 18.5275
